<?xml version="1.0" encoding="UTF-8" standalone="no"?>
<!-- Created with Inkscape (http://www.inkscape.org/) -->

<svg
   width="100"
   height="100"
   viewBox="0 0 100 100"
   version="1.1"
   id="svg5"
   xmlns="http://www.w3.org/2000/svg"
   xmlns:svg="http://www.w3.org/2000/svg">
  <defs
     id="defs2">
    <clipPath
       clipPathUnits="userSpaceOnUse"
       id="clipPath2553">
      <rect
         style="display:inline;fill:#000000;fill-opacity:1;stroke:none;stroke-width:20.8025;stroke-linecap:butt;stroke-linejoin:miter;stroke-dasharray:none;stroke-opacity:1"
         id="rect2555"
         width="91.961884"
         height="143.74997"
         x="23.817448"
         y="65.37767"
         ry="0" />
    </clipPath>
  </defs>
  <g
     id="layer1">
    <rect
       style="fill:none;stroke:#000000;stroke-width:9.20366;stroke-dasharray:none;stroke-opacity:1"
       id="rect111"
       width="90.796333"
       height="72.573334"
       x="4.6018324"
       y="13.71333"
       ry="11.87074" />
    <path
       style="fill:none;fill-opacity:1;stroke:#000000;stroke-width:8.66649;stroke-linecap:butt;stroke-linejoin:miter;stroke-dasharray:none;stroke-opacity:1"
       id="path1758"
       d="m 70.206516,139.95898 c -2.67812,0 -89.793726,-41.952666 -91.463506,-44.046503 -1.66978,-2.093838 -23.185561,-96.36061934 -22.589623,-98.9715924 0.595937,-2.6109731 60.881805,-78.2070646 63.294707,-79.3690566 2.412902,-1.161992 99.103926,-1.161995 101.516836,-3e-6 2.4129,1.161992 62.69877,76.7580804 63.29471,79.3690535 0.59593,2.61097301 -20.91984,96.8777555 -22.58962,98.9715935 -1.66978,2.093838 -88.785385,44.046508 -91.463504,44.046508 z"
       transform="matrix(1.0264266,0,0,1.0987672,-21.997527,-99.76963)"
       clip-path="url(#clipPath2553)" />
  </g>
</svg>
